<svg width="293" height="216" viewBox="0 0 293 216" fill="none" xmlns="http://www.w3.org/2000/svg">
<path d="M71.0149 180.894C36.0367 163.797 2.12332 142.96 7.59793 120.337C12.6226 99.5749 28.2548 87.2498 65.3188 93.1647C67.5042 93.5135 69.2672 89.8299 67.8228 88.1532C42.9346 59.2653 70.5767 3.02903 121.657 7.2231C151.693 9.68928 169.798 28.3826 168.602 77.4603C168.559 79.2578 170.746 80.2806 172.133 79.1365C191.479 63.1809 216.019 58.9664 232.295 69.8359C238.78 74.1671 239.052 83.284 233.338 91.4756C232.127 93.2108 233.854 96.5583 235.962 96.3811C259.567 94.3973 279.903 107.05 283.622 120.337C292.062 150.501 261.472 174.171 209.483 180.894M78.5431 148.673C91.1556 157.151 98.8921 163.642 112.41 176.723C113.44 177.721 113.112 179.453 111.8 180.034C96.3316 186.893 89.1756 193.874 78.5431 208.315M136.257 164.441C157.508 160.729 169.052 159.712 188.268 161.927M141.276 186.607C160.175 181.956 170.723 179.659 188.268 183.636M138.082 209.001C154.469 207.127 161.493 204.842 186.443 207.858" stroke="#7858FF" stroke-width="14" stroke-linecap="round"/>
</svg>
