<svg width="263" height="213" viewBox="0 0 263 213" fill="none" xmlns="http://www.w3.org/2000/svg">
<circle cx="94.0412" cy="86.5461" r="5.9631" fill="#7858FF"/>
<path d="M6 126.797C6 74.8543 45.0555 30.3835 82.9669 26.4517C84.8144 26.2601 85.6652 28.486 84.2606 29.7014C44.5775 64.0366 29.1074 83.3733 35.2565 113.007C37.5194 122.902 44.5731 129.965 59.6679 131.642C75.693 131.642 91.6227 117.666 84.8247 105.926C81.1156 99.5202 70.7713 96.6701 58.9716 103.451C57.467 104.316 55.4904 103.158 55.7609 101.443C57.0183 93.4748 59.4554 89.0087 66.4416 84.2062C66.521 84.1516 66.6077 84.1012 66.6943 84.0588C79.6413 77.7227 86.7267 72.9768 97.0875 59.4371C97.5641 58.8142 98.3633 58.5252 99.1364 58.6574C107.583 60.1021 112.207 56.2275 117.636 46.3334C118.616 44.5459 121.39 45.0797 121.508 47.1151C121.848 52.9537 121.824 57.3826 121.253 62.6323C121.121 63.845 122.082 64.9395 123.273 64.677C126.113 64.0512 128.214 62.2591 130.544 59.197C131.717 57.6554 134.232 58.3339 134.217 60.2709C134.171 66.3648 133.062 70.7958 128.783 75.5734C127.727 76.7514 128.208 78.6936 129.771 78.9348C135.025 79.7457 138.653 78.6381 142.786 75.759C144.314 74.6948 146.494 75.9274 146.159 77.7591C144.175 88.6353 141.627 94.8998 131.815 96.1824C130.305 96.3797 129.362 98.0399 130.168 99.3321C134.996 107.077 140.718 113.007 152.841 113.007C169.053 113.007 190.669 100.708 195.142 89.3409C199.968 70.5722 187.406 45.4957 144.83 9.56615C143.279 8.25668 144.397 5.71397 146.399 6.04848C173.114 10.5106 196.55 17.6906 212.472 31.387C229.802 46.2948 259.597 96.4221 255.705 126.797C248.996 179.16 208.931 206.926 128.43 206.926C52.9587 202.826 8.60813 180.092 6 126.797Z" stroke="#7858FF" stroke-width="12" stroke-linecap="round"/>
</svg>
