<svg width="223" height="214" viewBox="0 0 223 214" fill="none" xmlns="http://www.w3.org/2000/svg">
<path d="M7.29495 103.538C3.52827 134.915 3.88675 191.573 67.6289 207.8C75.7707 209.872 85.5788 195.442 90.0467 183.233C90.5709 181.801 89.2814 180.409 87.7748 180.649C74.1599 182.811 62.0691 179.182 52.1196 168.982C44.3907 160.044 38.9475 155.549 33.6816 153.908C31.5156 153.234 30.2604 149.251 32.4273 148.58C40.5111 146.073 47.489 149.056 57.8571 160.376C67.9577 169.908 75.0753 172.451 90.6087 168.627C91.6091 168.38 92.2412 167.398 92.0888 166.379C91.0103 159.169 91.1597 154.918 93.3104 151.171C94.1159 149.767 93.3843 147.803 91.7852 147.555C67.3581 143.774 56.722 135.31 50.2369 116.537C41.293 90.6463 41.3092 78.2411 59.7296 64.2807C59.9678 64.1002 60.1713 63.8637 60.3091 63.5984C63.4139 57.6247 65.1485 53.5699 67.0985 46.042C67.4243 44.7844 68.8347 44.1419 69.976 44.7625C75.9763 48.0251 79.3022 50.5129 83.2961 54.5392C83.9454 55.1938 84.9641 55.334 85.7649 54.8768C108.792 41.7317 121.334 39.5711 139.861 50.0195C140.746 50.5189 141.872 50.2991 142.498 49.498C145.777 45.2995 148.416 42.6312 152.805 39.3349C153.918 38.4991 155.512 39.0732 155.832 40.4279C156.947 45.155 157.412 49.1642 157.687 55.989C157.713 56.629 158.045 57.2231 158.574 57.5848C171.796 66.6323 177.897 74.8924 177.897 93.856C177.897 110.503 172.576 131.008 140.967 143.398C139.6 143.934 139.202 145.713 140.078 146.891C144.928 153.413 144.883 162.059 141.561 180.179C141.466 180.696 141.582 181.249 141.878 181.683C156.211 202.649 165.28 204.985 183.347 185.951C183.418 185.876 183.486 185.792 183.544 185.707C217.027 137.136 224.232 97.0542 210.261 64.0029C187.937 19.0888 140.512 6 99.9922 6C47.7253 6 21.5492 33.1636 7.29495 103.538Z" stroke="#7858FF" stroke-width="12" stroke-linecap="round"/>
</svg>
