<svg width="360" height="207" viewBox="0 0 360 207" fill="none" xmlns="http://www.w3.org/2000/svg">
<path d="M200.941 21.2363L24.8331 36.1961L23.2141 32.6135C20.4259 26.4439 10.5731 28.8949 10.9358 35.6556C13.1265 76.4846 14.7927 144.109 6.09596 193.642C5.33513 197.976 9.22753 201.755 13.5151 200.768C26.583 197.759 38.7496 195.067 50.24 192.667C115.028 179.138 158.315 174.917 220.431 175.76M328.671 44.5331C280.585 80.0308 251.722 111.749 220.431 175.76C92.7046 198.249 57.8073 201.331 50.24 192.667M328.671 44.5331C333.537 40.9408 338.6 37.3099 343.883 33.6029C348.661 30.2496 346.407 22.675 340.571 22.5469C285.51 21.3379 240.885 20.7223 200.941 21.2363C145.546 21.9492 99.1529 24.8347 46.4116 31.3235L24.8331 36.1961M246.182 129.471L328.671 44.5331" stroke="#7858FF" stroke-width="12"/>
<path d="M17.8713 23.3184C25.5098 80.304 22.771 119.987 8.82227 175.76" stroke="#7858FF" stroke-width="12"/>
</svg>
