<svg width="348" height="216" viewBox="0 0 348 216" fill="none" xmlns="http://www.w3.org/2000/svg">
<path d="M26.0539 204.899C40.9035 211.329 92.4944 203.092 152.466 204.899C230.019 207.235 283.857 213.529 315.639 203.49M26.0539 204.899C23.7213 203.889 22.2953 202.517 21.8857 200.687C11.7381 155.361 -1.99159 89.4501 15.0835 23.1716M26.0539 204.899C68.4425 171.667 90.6399 151.151 127.444 111.585M15.0835 23.1716C15.588 21.2133 16.1194 19.2546 16.6786 17.2962C16.9008 16.518 17.5893 15.9528 18.3938 15.8657C135.351 3.20702 204.267 4.86806 329.517 16.0116C331.491 16.4559 333.16 17.4765 334.562 18.9803M334.562 18.9803C287.818 61.6467 241.264 99.1195 204.194 116.653C189.926 123.402 177.063 127.196 166.135 127.196C157.035 127.196 143.928 121.68 127.444 111.585C98.9805 94.1543 60.4467 63.0731 15.0835 23.1716M334.562 18.9803C346.451 31.7331 339.076 79.2354 334.562 104.665C329.537 132.977 334.522 192.203 323.138 200.587C323.043 200.657 322.944 200.712 322.836 200.761C320.578 201.782 318.179 202.688 315.639 203.49M315.639 203.49C268.591 162.588 244.852 144.889 204.194 116.653" stroke="#7858FF" stroke-width="14" stroke-linecap="round"/>
</svg>
