<svg width="243" height="255" viewBox="0 0 243 255" fill="none" xmlns="http://www.w3.org/2000/svg">
<path d="M110.237 55.498C82.2468 10.5853 8.96011 3.62596 12.0977 80.2745C13.7233 92.1001 17.7623 100.927 32.1916 121.983C41.4004 135.421 95.5637 197.854 111.504 234.433C112.222 236.082 114.622 236.122 115.362 234.483C116.746 231.415 118.121 228.422 119.489 225.498M110.237 55.498C112.561 59.2271 114.573 63.2177 116.203 67.4438C116.808 69.0126 119.049 69.1954 119.995 67.8053C204.101 -55.8067 262.034 58.2866 213.037 101.515C167.309 141.86 144.377 172.315 119.489 225.498M110.237 55.498C115.846 64.498 117.131 69.9981 119 76.998M119.489 225.498L111.5 242.998" stroke="#7858FF" stroke-width="24" stroke-linecap="round"/>
</svg>
